<mxfile host="app.diagrams.net" modified="2022-05-03T11:18:12.110Z" agent="5.0 (Windows NT 10.0; WOW64) AppleWebKit/537.36 (KHTML, like Gecko) Chrome/100.0.4896.88 Safari/537.36" etag="fHQPC3vXDKEcq0bXe0gS" version="17.4.4" type="github">
  <diagram id="wZBX_qP1Bf_u1HNPw5r9" name="Page-1">
    <mxGraphModel dx="1038" dy="575" grid="1" gridSize="10" guides="1" tooltips="1" connect="1" arrows="1" fold="1" page="1" pageScale="1" pageWidth="827" pageHeight="1169" math="0" shadow="0">
      <root>
        <mxCell id="0" />
        <mxCell id="1" parent="0" />
        <mxCell id="a6XNYdV735CAFfSAR4Dt-1" value="" style="ellipse;whiteSpace=wrap;html=1;aspect=fixed;" vertex="1" parent="1">
          <mxGeometry x="40" y="160" width="39" height="39" as="geometry" />
        </mxCell>
        <mxCell id="a6XNYdV735CAFfSAR4Dt-3" value="" style="ellipse;whiteSpace=wrap;html=1;aspect=fixed;" vertex="1" parent="1">
          <mxGeometry x="120" y="160" width="39" height="39" as="geometry" />
        </mxCell>
        <mxCell id="a6XNYdV735CAFfSAR4Dt-4" value="" style="ellipse;whiteSpace=wrap;html=1;aspect=fixed;" vertex="1" parent="1">
          <mxGeometry x="201" y="160" width="39" height="39" as="geometry" />
        </mxCell>
        <mxCell id="a6XNYdV735CAFfSAR4Dt-7" value="" style="ellipse;whiteSpace=wrap;html=1;aspect=fixed;" vertex="1" parent="1">
          <mxGeometry x="279" y="160" width="39" height="39" as="geometry" />
        </mxCell>
        <mxCell id="a6XNYdV735CAFfSAR4Dt-8" value="" style="ellipse;whiteSpace=wrap;html=1;aspect=fixed;" vertex="1" parent="1">
          <mxGeometry x="360" y="160" width="39" height="39" as="geometry" />
        </mxCell>
        <mxCell id="a6XNYdV735CAFfSAR4Dt-9" value="" style="ellipse;whiteSpace=wrap;html=1;aspect=fixed;" vertex="1" parent="1">
          <mxGeometry x="440" y="160" width="39" height="39" as="geometry" />
        </mxCell>
        <mxCell id="a6XNYdV735CAFfSAR4Dt-11" value="" style="ellipse;whiteSpace=wrap;html=1;aspect=fixed;" vertex="1" parent="1">
          <mxGeometry x="520" y="160" width="39" height="39" as="geometry" />
        </mxCell>
      </root>
    </mxGraphModel>
  </diagram>
</mxfile>
